<svg width="65" height="64" viewBox="0 0 65 64" fill="none" xmlns="http://www.w3.org/2000/svg">
<rect y="64" width="64" height="64" rx="8" transform="rotate(-90 0 64)" fill="url(#paint0_linear_0_1)"/>
<g filter="url(#filter0_d_0_1)">
<path d="M5.02611 35V17.32H7.88611C9.25544 19.1053 10.5554 20.9947 11.7861 22.988C13.0168 24.964 14.1348 27.0007 15.1401 29.098L14.9061 23.82V17.32H17.8961V35H15.0361C13.9268 32.816 12.7741 30.6233 11.5781 28.422C10.3994 26.2033 9.14278 24.1147 7.80811 22.156L8.01611 28.24V35H5.02611ZM32.2382 32.01V35H21.9942V17.32H31.9782V20.31H25.1142V24.548H31.1982V27.538H25.1142V32.01H32.2382ZM43.5776 35L39.8856 28.526L36.3756 35H33.0996L38.2736 25.822L33.3856 17.32H36.9216L40.3276 23.248L43.5256 17.32H46.8016L41.9396 25.978L47.1136 35H43.5776ZM47.0703 20.31V17.32H60.0703V20.31H55.1303V35H52.0103V20.31H47.0703Z" fill="white"/>
</g>
<path d="M15.8277 50.693C15.3657 50.707 14.8547 50.665 14.2947 50.567C13.7347 50.483 13.1887 50.329 12.6567 50.105C12.1247 49.881 11.6627 49.587 11.2707 49.223C10.8787 48.859 10.6127 48.411 10.4727 47.879C10.9767 48.327 11.6627 48.656 12.5307 48.866C13.3987 49.062 14.2807 49.16 15.1767 49.16C16.3667 49.16 17.4027 49.027 18.2847 48.761C18.5367 48.691 18.8307 48.579 19.1667 48.425C19.5027 48.257 19.8317 48.068 20.1537 47.858C20.4757 47.634 20.7417 47.389 20.9517 47.123C21.1757 46.857 21.2877 46.584 21.2877 46.304C21.2877 46.108 21.2247 45.919 21.0987 45.737C20.9727 45.555 20.7697 45.373 20.4897 45.191C20.3217 45.093 20.0767 44.988 19.7547 44.876C19.4467 44.75 19.1107 44.61 18.7467 44.456C18.3827 44.288 18.0397 44.099 17.7177 43.889C17.3957 43.665 17.1367 43.406 16.9407 43.112C16.7587 42.804 16.6887 42.454 16.7307 42.062C16.8007 41.488 17.0597 40.921 17.5077 40.361C17.9697 39.787 18.5437 39.255 19.2297 38.765C19.9297 38.261 20.6787 37.82 21.4767 37.442C22.2887 37.064 23.0797 36.77 23.8497 36.56C24.6337 36.336 25.3267 36.224 25.9287 36.224C26.5447 36.224 27.0697 36.343 27.5037 36.581C27.9517 36.819 28.1407 37.225 28.0707 37.799C28.0427 38.051 27.8677 38.352 27.5457 38.702C27.2377 39.052 26.8667 39.437 26.4327 39.857C25.9987 40.277 25.5647 40.718 25.1307 41.18C24.7107 41.642 24.3607 42.111 24.0807 42.587C23.8147 43.063 23.6957 43.525 23.7237 43.973C23.4997 43.791 23.3317 43.588 23.2197 43.364C23.1217 43.14 23.0727 42.909 23.0727 42.671C23.0727 42.335 23.1427 41.992 23.2827 41.642C23.4227 41.292 23.5977 40.963 23.8077 40.655C24.0177 40.333 24.2137 40.06 24.3957 39.836C24.7177 39.444 25.0817 39.073 25.4877 38.723C25.8937 38.373 26.3067 38.051 26.7267 37.757C26.6007 37.575 26.3837 37.484 26.0757 37.484C25.7537 37.484 25.3897 37.554 24.9837 37.694C24.5917 37.834 24.2207 37.988 23.8707 38.156C23.5347 38.31 23.2967 38.429 23.1567 38.513C22.5547 38.835 21.9457 39.199 21.3297 39.605C20.7277 40.011 20.1677 40.424 19.6497 40.844C19.1457 41.264 18.7327 41.656 18.4107 42.02C18.1027 42.37 17.9347 42.664 17.9067 42.902C17.8787 43.196 18.0047 43.448 18.2847 43.658C18.5647 43.854 18.9287 44.036 19.3767 44.204C19.8247 44.372 20.2657 44.568 20.6997 44.792C21.2877 45.086 21.7147 45.422 21.9807 45.8C22.2467 46.178 22.3797 46.57 22.3797 46.976C22.3797 47.48 22.1907 47.977 21.8127 48.467C21.4347 48.943 20.9237 49.342 20.2797 49.664C19.7057 49.944 19.1037 50.161 18.4737 50.315C17.8577 50.469 17.3047 50.567 16.8147 50.609C16.3387 50.665 16.0097 50.693 15.8277 50.693ZM24.2083 50.357C23.7603 50.357 23.4173 50.224 23.1793 49.958C22.9413 49.692 22.8223 49.321 22.8223 48.845C22.8223 48.397 22.9413 47.872 23.1793 47.27L23.2213 47.165L22.8433 47.522C22.7873 47.578 22.7243 47.606 22.6543 47.606C22.5843 47.606 22.5493 47.578 22.5493 47.522C22.5493 47.452 22.5983 47.368 22.6963 47.27C23.0603 46.948 23.4313 46.612 23.8093 46.262C24.2013 45.898 24.5303 45.555 24.7963 45.233C24.6983 45.275 24.5933 45.296 24.4813 45.296C24.3693 45.296 24.2853 45.268 24.2293 45.212C24.1313 45.142 24.0823 45.016 24.0823 44.834C24.0823 44.68 24.1523 44.519 24.2923 44.351C24.4463 44.183 24.7543 44.036 25.2163 43.91C25.3143 43.882 25.4123 43.861 25.5103 43.847C25.6223 43.833 25.7273 43.819 25.8253 43.805C26.2733 43.175 26.6653 42.594 27.0013 42.062C27.3373 41.516 27.6033 41.152 27.7993 40.97C27.8833 40.872 28.0303 40.788 28.2403 40.718C28.4643 40.648 28.6953 40.592 28.9333 40.55C29.1853 40.508 29.3813 40.487 29.5213 40.487C29.9833 40.487 30.2143 40.529 30.2143 40.613C30.2143 40.669 30.1093 40.802 29.8993 41.012C29.5493 41.348 29.1363 41.768 28.6603 42.272C28.1983 42.762 27.7223 43.294 27.2323 43.868C27.6383 43.924 28.0093 44.029 28.3453 44.183C28.6953 44.337 28.9473 44.533 29.1013 44.771C29.1573 44.841 29.1853 44.925 29.1853 45.023C29.1853 45.135 29.1503 45.191 29.0803 45.191C29.0243 45.191 28.9613 45.156 28.8913 45.086C28.5973 44.792 28.1073 44.645 27.4213 44.645C27.2813 44.645 27.1343 44.652 26.9803 44.666C26.8403 44.68 26.6933 44.701 26.5393 44.729C26.0633 45.345 25.6293 45.961 25.2373 46.577C24.8453 47.193 24.5653 47.767 24.3973 48.299C24.3133 48.551 24.2713 48.782 24.2713 48.992C24.2713 49.202 24.3203 49.377 24.4183 49.517C24.5163 49.643 24.6633 49.706 24.8593 49.706C24.9853 49.706 25.1393 49.671 25.3213 49.601C25.5873 49.503 25.8953 49.342 26.2453 49.118C26.5953 48.88 26.9453 48.614 27.2953 48.32C27.6593 48.026 27.9953 47.739 28.3033 47.459C28.6253 47.179 28.8913 46.941 29.1013 46.745C29.3113 46.549 29.4303 46.437 29.4583 46.409C29.5003 46.367 29.5353 46.346 29.5633 46.346C29.6193 46.346 29.6473 46.388 29.6473 46.472C29.6473 46.57 29.6053 46.661 29.5213 46.745C29.3813 46.885 29.1643 47.095 28.8703 47.375C28.5903 47.655 28.2613 47.97 27.8833 48.32C27.5193 48.656 27.1273 48.978 26.7073 49.286C26.2873 49.594 25.8603 49.846 25.4263 50.042C25.0063 50.252 24.6003 50.357 24.2083 50.357ZM30.074 50.189C29.528 50.189 29.115 50.056 28.835 49.79C28.569 49.51 28.436 49.153 28.436 48.719C28.436 48.453 28.471 48.194 28.541 47.942C28.611 47.69 28.688 47.466 28.772 47.27C28.674 47.368 28.576 47.459 28.478 47.543C28.394 47.613 28.324 47.669 28.268 47.711C28.212 47.753 28.163 47.774 28.121 47.774C28.065 47.774 28.037 47.739 28.037 47.669C28.037 47.571 28.107 47.459 28.247 47.333C28.737 46.927 29.122 46.57 29.402 46.262C29.682 45.94 29.976 45.646 30.284 45.38C30.802 44.932 31.355 44.582 31.943 44.33C32.531 44.078 33.119 43.952 33.707 43.952C34.323 43.952 34.806 44.099 35.156 44.393C35.506 44.687 35.681 45.121 35.681 45.695C35.681 46.017 35.583 46.388 35.387 46.808C35.205 47.228 34.911 47.662 34.505 48.11C34.337 48.292 34.148 48.474 33.938 48.656C33.728 48.824 33.546 48.95 33.392 49.034C34.078 48.964 34.722 48.726 35.324 48.32C35.926 47.9 36.465 47.487 36.941 47.081C37.011 47.039 37.06 47.018 37.088 47.018C37.158 47.018 37.193 47.053 37.193 47.123C37.193 47.179 37.158 47.242 37.088 47.312C36.486 47.886 35.835 48.369 35.135 48.761C34.449 49.153 33.686 49.342 32.846 49.328C32.356 49.594 31.873 49.804 31.397 49.958C30.935 50.112 30.494 50.189 30.074 50.189ZM31.019 49.601C31.215 49.601 31.425 49.566 31.649 49.496C31.873 49.426 32.097 49.335 32.321 49.223C32.237 49.223 32.153 49.181 32.069 49.097C31.999 49.013 31.964 48.901 31.964 48.761C31.964 48.481 32.069 48.194 32.279 47.9C32.489 47.606 32.748 47.354 33.056 47.144C33.364 46.934 33.665 46.829 33.959 46.829C34.127 46.829 34.281 46.878 34.421 46.976C34.575 47.06 34.659 47.179 34.673 47.333C34.911 47.067 35.072 46.78 35.156 46.472C35.254 46.164 35.303 45.877 35.303 45.611C35.303 45.247 35.184 44.974 34.946 44.792C34.722 44.596 34.414 44.498 34.022 44.498C33.644 44.498 33.224 44.631 32.762 44.897C32.314 45.163 31.887 45.506 31.481 45.926C31.089 46.346 30.76 46.801 30.494 47.291C30.242 47.781 30.116 48.25 30.116 48.698C30.116 49.3 30.417 49.601 31.019 49.601ZM39.7847 50.021C39.1827 50.021 38.7767 49.909 38.5667 49.685C38.3567 49.447 38.2517 49.188 38.2517 48.908C38.2517 48.544 38.3917 48.159 38.6717 47.753C38.8397 47.515 39.0287 47.249 39.2387 46.955C39.4487 46.647 39.6447 46.36 39.8267 46.094C40.0087 45.828 40.1347 45.639 40.2047 45.527C40.3027 45.387 40.3587 45.296 40.3727 45.254C40.4007 45.198 40.4147 45.142 40.4147 45.086C40.4147 45.002 40.3587 44.925 40.2467 44.855C40.1487 44.771 39.9807 44.729 39.7427 44.729C39.6727 44.729 39.6097 44.736 39.5537 44.75C39.5117 44.75 39.4627 44.75 39.4067 44.75C39.2947 44.75 39.2317 44.743 39.2177 44.729L39.1547 44.813C38.7627 45.331 38.3427 45.842 37.8947 46.346C37.4467 46.836 36.9567 47.291 36.4247 47.711C36.3687 47.753 36.3267 47.774 36.2987 47.774C36.2427 47.774 36.2147 47.746 36.2147 47.69C36.2147 47.578 36.2987 47.452 36.4667 47.312C36.9007 46.948 37.3277 46.542 37.7477 46.094C38.1677 45.632 38.5457 45.149 38.8817 44.645C38.7557 44.561 38.6927 44.393 38.6927 44.141C38.6927 43.763 38.8117 43.357 39.0497 42.923C39.2177 42.629 39.3997 42.412 39.5957 42.272C39.8057 42.118 39.9877 42.041 40.1417 42.041C40.4357 42.041 40.5827 42.216 40.5827 42.566C40.5827 42.79 40.4987 43.07 40.3307 43.406C40.2607 43.574 40.1207 43.791 39.9107 44.057C39.7147 44.309 39.5187 44.491 39.3227 44.603C39.6167 44.505 39.9877 44.442 40.4357 44.414C40.8977 44.372 41.2827 44.351 41.5907 44.351C41.7727 44.351 41.9967 44.407 42.2627 44.519C42.5287 44.617 42.6617 44.799 42.6617 45.065C42.6617 45.247 42.5777 45.443 42.4097 45.653C42.3677 45.709 42.2557 45.842 42.0737 46.052C41.8917 46.262 41.6887 46.514 41.4647 46.808C41.2547 47.102 41.0587 47.396 40.8767 47.69C40.6947 47.956 40.5477 48.201 40.4357 48.425C40.3377 48.649 40.2887 48.838 40.2887 48.992C40.2887 49.216 40.4147 49.328 40.6667 49.328C40.9607 49.328 41.3527 49.188 41.8427 48.908C42.3327 48.628 42.8577 48.271 43.4177 47.837C43.9917 47.389 44.5167 46.927 44.9927 46.451C45.0487 46.395 45.0977 46.367 45.1397 46.367C45.1957 46.367 45.2237 46.402 45.2237 46.472C45.2237 46.556 45.1887 46.633 45.1187 46.703C44.6287 47.193 44.0827 47.697 43.4807 48.215C42.8927 48.719 42.2767 49.146 41.6327 49.496C41.0027 49.846 40.3867 50.021 39.7847 50.021ZM46.0496 50.21C45.4336 50.21 44.9156 50.063 44.4956 49.769C44.0896 49.461 43.8866 49.02 43.8866 48.446C43.8866 47.83 44.0336 47.256 44.3276 46.724C44.6216 46.192 45.0136 45.73 45.5036 45.338C45.9936 44.932 46.5256 44.617 47.0996 44.393C47.6876 44.169 48.2686 44.057 48.8426 44.057C49.4166 44.057 49.8436 44.162 50.1236 44.372C50.4036 44.568 50.5436 44.813 50.5436 45.107C50.5436 45.387 50.4106 45.688 50.1446 46.01C49.8926 46.318 49.5216 46.591 49.0316 46.829C48.7236 46.969 48.3666 47.095 47.9606 47.207C47.5686 47.305 47.2256 47.354 46.9316 47.354C46.7076 47.354 46.5956 47.319 46.5956 47.249C46.5956 47.193 46.6936 47.165 46.8896 47.165C47.0716 47.165 47.3516 47.116 47.7296 47.018C48.1216 46.906 48.4996 46.759 48.8636 46.577C49.2696 46.353 49.5566 46.129 49.7246 45.905C49.8926 45.681 49.9766 45.478 49.9766 45.296C49.9766 45.128 49.9066 44.988 49.7666 44.876C49.6406 44.764 49.4586 44.708 49.2206 44.708C48.9966 44.708 48.7446 44.771 48.4646 44.897C48.0586 45.079 47.6386 45.38 47.2046 45.8C46.7846 46.206 46.4346 46.654 46.1546 47.144C45.8746 47.634 45.7346 48.103 45.7346 48.551C45.7346 48.859 45.8186 49.118 45.9866 49.328C46.1686 49.538 46.4346 49.643 46.7846 49.643C47.1486 49.643 47.5686 49.531 48.0446 49.307C48.5206 49.069 49.0036 48.782 49.4936 48.446C49.9836 48.096 50.4386 47.746 50.8586 47.396C51.2786 47.046 51.6146 46.752 51.8666 46.514C51.9506 46.43 52.0136 46.388 52.0556 46.388C52.0976 46.388 52.1186 46.423 52.1186 46.493C52.1186 46.591 52.0766 46.675 51.9926 46.745C51.4606 47.235 50.8796 47.746 50.2496 48.278C49.6336 48.81 48.9686 49.265 48.2546 49.643C47.5546 50.007 46.8196 50.196 46.0496 50.21Z" fill="white"/>
<defs>
<filter id="filter0_d_0_1" x="1.02612" y="17.3199" width="63.0442" height="25.6801" filterUnits="userSpaceOnUse" color-interpolation-filters="sRGB">
<feFlood flood-opacity="0" result="BackgroundImageFix"/>
<feColorMatrix in="SourceAlpha" type="matrix" values="0 0 0 0 0 0 0 0 0 0 0 0 0 0 0 0 0 0 127 0" result="hardAlpha"/>
<feOffset dy="4"/>
<feGaussianBlur stdDeviation="2"/>
<feComposite in2="hardAlpha" operator="out"/>
<feColorMatrix type="matrix" values="0 0 0 0 0 0 0 0 0 0 0 0 0 0 0 0 0 0 0.25 0"/>
<feBlend mode="normal" in2="BackgroundImageFix" result="effect1_dropShadow_0_1"/>
<feBlend mode="normal" in="SourceGraphic" in2="effect1_dropShadow_0_1" result="shape"/>
</filter>
<linearGradient id="paint0_linear_0_1" x1="3" y1="67" x2="64" y2="128" gradientUnits="userSpaceOnUse">
<stop stop-color="#7996FF"/>
<stop offset="0.5" stop-color="#2051FF"/>
<stop offset="1" stop-color="#021B75"/>
</linearGradient>
</defs>
</svg>
